<svg width="100" height="100" viewBox="0 0 100 100" fill="none" xmlns="http://www.w3.org/2000/svg">
<path d="M100 50C100 51.6466 98.2141 52.6027 96.788 51.7794L60.5884 30.8795C57.7635 29.2486 57.7635 25.1712 60.5884 23.5403L79.1735 12.8102C80.702 11.9277 82.6297 12.0727 83.926 13.2706C93.8105 22.4051 100 35.4798 100 50Z" fill="#4338CA"/>
<path d="M96.8034 56.6811C98.3298 57.5623 99.1683 59.301 98.7815 61.0206C95.9238 73.7241 88.231 84.5978 77.7375 91.6073C75.1342 93.3462 71.8644 91.3326 71.8644 88.202V49.6217C71.8644 46.3599 75.3955 44.3212 78.2203 45.9521L96.8034 56.6811Z" fill="#4338CA"/>
<path d="M67.6271 93.8728C67.6271 95.6366 66.5394 97.2329 64.855 97.7563C60.162 99.2145 55.1727 100 50 100C42.0318 100 34.499 98.1361 27.8137 94.8205C25.0121 93.431 25.1254 89.5969 27.8337 88.0333L61.2712 68.7281C64.096 67.0972 67.6271 69.1359 67.6271 72.3977V93.8728Z" fill="#4338CA"/>
<path d="M16.0713 86.7269C17.3676 87.925 19.2954 88.0701 20.8241 87.1875L39.4084 76.4578C42.2332 74.8269 42.2333 70.7496 39.4084 69.1186L3.21195 48.2206C1.78592 47.3973 0 48.3534 0 50C0 64.5189 6.18834 77.5925 16.0713 86.7269Z" fill="#4338CA"/>
<path d="M3.19661 43.319C1.67023 42.4377 0.831707 40.699 1.21852 38.9794C4.07615 26.2759 11.769 15.4022 22.2626 8.39273C24.8658 6.65382 28.1356 8.66735 28.1356 11.798V50.3783C28.1356 53.6402 24.6045 55.6788 21.7797 54.0479L3.19661 43.319Z" fill="#4338CA"/>
<path d="M32.3729 6.12723C32.3729 4.36339 33.4606 2.76709 35.145 2.24371C39.838 0.785498 44.8273 0 50 0C57.9667 0 65.4982 1.86321 72.1826 5.17764C74.9845 6.56696 74.8713 10.4013 72.1628 11.965L38.7288 31.2681C35.904 32.899 32.3729 30.8604 32.3729 27.5985V6.12723Z" fill="#4338CA"/>
</svg>
